<?xml version="1.0" encoding="UTF-8"?>
<svg xmlns="http://www.w3.org/2000/svg" viewBox="0 0 1595.61 510.52">
  <defs>
    <style>
      .cls-1 {
        isolation: isolate;
      }

      .cls-2 {
        fill: #e51ead;
      }

      .cls-2, .cls-3 {
        mix-blend-mode: multiply;
      }

      .cls-4 {
        font-family: TrebuchetMS, 'Trebuchet MS';
        font-size: 428.95px;
      }

      .cls-3 {
        fill: #3827b4;
      }
    </style>
  </defs>
  <g class="cls-1">
    <g id="Layer_2" data-name="Layer 2">
      <g id="Layer_1-2" data-name="Layer 1">
        <g>
          <path class="cls-3" d="M483.55,385.09c-34.83,34.83-131.61-2.82-235.37-85.61-26.14-20.86-52.73-44.58-78.88-70.73-26.19-26.19-49.95-52.82-70.83-79.01,20.87-26.19,44.63-52.82,70.83-79.02C195.45,44.57,222.04,20.85,248.18,0c26.19,20.88,52.83,44.64,79.03,70.84,26.16,26.16,49.89,52.75,70.75,78.9,82.78,103.76,120.42,200.52,85.59,235.35Z"/>
          <path class="cls-2" d="M397.96,149.74c-20.86,26.15-44.59,52.74-70.75,78.89-26.2,26.2-52.84,49.97-79.03,70.85-103.71,82.71-200.4,120.31-235.22,85.49-34.81-34.81,2.79-131.52,85.51-235.23,20.87-26.19,44.63-52.82,70.83-79.02C195.45,44.57,222.04,20.85,248.18,0c26.19,20.88,52.83,44.64,79.03,70.84,26.16,26.16,49.89,52.75,70.75,78.9Z"/>
        </g>
        <text class="cls-4" transform="translate(576.86 398.05)"><tspan x="0" y="0">Audit</tspan></text>
      </g>
    </g>
  </g>
</svg>